<mxfile host="Electron" agent="Mozilla/5.0 (Windows NT 10.0; Win64; x64) AppleWebKit/537.36 (KHTML, like Gecko) draw.io/26.0.16 Chrome/132.0.6834.196 Electron/34.2.0 Safari/537.36" version="26.0.16">
  <diagram name="Database Relationships" id="xthDe0y9z6ZA_OKFHVCf">
    <mxGraphModel dx="2613" dy="540" grid="1" gridSize="1" guides="1" tooltips="1" connect="1" arrows="1" fold="1" page="1" pageScale="1" pageWidth="850" pageHeight="1100" math="0" shadow="0">
      <root>
        <mxCell id="0" />
        <mxCell id="1" parent="0" />
        <mxCell id="0JZNGs19J2AaL2Q8BezS-11" value="&lt;span style=&quot;color: rgba(0, 0, 0, 0); font-family: monospace; font-size: 0px; text-align: start;&quot;&gt;%3CmxGraphModel%3E%3Croot%3E%3CmxCell%20id%3D%220%22%2F%3E%3CmxCell%20id%3D%221%22%20parent%3D%220%22%2F%3E%3CmxCell%20id%3D%222%22%20value%3D%22User%20Table%22%20style%3D%22swimlane%3BfontStyle%3D0%3BchildLayout%3DstackLayout%3Bhorizontal%3D1%3BstartSize%3D30%3BhorizontalStack%3D0%3BresizeParent%3D1%3BresizeParentMax%3D0%3BresizeLast%3D0%3Bcollapsible%3D1%3BmarginBottom%3D0%3BwhiteSpace%3Dwrap%3Bhtml%3D1%3B%22%20vertex%3D%221%22%20parent%3D%221%22%3E%3CmxGeometry%20x%3D%2273%22%20y%3D%2271%22%20width%3D%22234%22%20height%3D%22116%22%20as%3D%22geometry%22%2F%3E%3C%2FmxCell%3E%3CmxCell%20id%3D%223%22%20value%3D%22id%22%20style%3D%22text%3BstrokeColor%3Dnone%3BfillColor%3Dnone%3Balign%3Dleft%3BverticalAlign%3Dmiddle%3BspacingLeft%3D4%3BspacingRight%3D4%3Boverflow%3Dhidden%3Bpoints%3D%5B%5B0%2C0.5%5D%2C%5B1%2C0.5%5D%5D%3BportConstraint%3Deastwest%3Brotatable%3D0%3BwhiteSpace%3Dwrap%3Bhtml%3D1%3B%22%20vertex%3D%221%22%20parent%3D%222%22%3E%3CmxGeometry%20y%3D%2230%22%20width%3D%22234%22%20height%3D%2230%22%20as%3D%22geometry%22%2F%3E%3C%2FmxCell%3E%3CmxCell%20id%3D%224%22%20value%3D%22Item%202%22%20style%3D%22text%3BstrokeColor%3Dnone%3BfillColor%3Dnone%3Balign%3Dleft%3BverticalAlign%3Dmiddle%3BspacingLeft%3D4%3BspacingRight%3D4%3Boverflow%3Dhidden%3Bpoints%3D%5B%5B0%2C0.5%5D%2C%5B1%2C0.5%5D%5D%3BportConstraint%3Deastwest%3Brotatable%3D0%3BwhiteSpace%3Dwrap%3Bhtml%3D1%3B%22%20vertex%3D%221%22%20parent%3D%222%22%3E%3CmxGeometry%20y%3D%2260%22%20width%3D%22234%22%20height%3D%2230%22%20as%3D%22geometry%22%2F%3E%3C%2FmxCell%3E%3CmxCell%20id%3D%225%22%20value%3D%22Item%203%22%20style%3D%22text%3BstrokeColor%3Dnone%3BfillColor%3Dnone%3Balign%3Dleft%3BverticalAlign%3Dmiddle%3BspacingLeft%3D4%3BspacingRight%3D4%3Boverflow%3Dhidden%3Bpoints%3D%5B%5B0%2C0.5%5D%2C%5B1%2C0.5%5D%5D%3BportConstraint%3Deastwest%3Brotatable%3D0%3BwhiteSpace%3Dwrap%3Bhtml%3D1%3B%22%20vertex%3D%221%22%20parent%3D%222%22%3E%3CmxGeometry%20y%3D%2290%22%20width%3D%22234%22%20height%3D%2226%22%20as%3D%22geometry%22%2F%3E%3C%2FmxCell%3E%3C%2Froot%3E%3C%2FmxGraphModel%3E&lt;/span&gt;" style="text;html=1;align=center;verticalAlign=middle;resizable=0;points=[];autosize=1;strokeColor=none;fillColor=none;" vertex="1" parent="1">
          <mxGeometry x="114" y="198" width="19" height="27" as="geometry" />
        </mxCell>
        <mxCell id="0JZNGs19J2AaL2Q8BezS-17" value="User" style="swimlane;childLayout=stackLayout;horizontal=1;startSize=50;horizontalStack=0;rounded=1;fontSize=14;fontStyle=0;strokeWidth=2;resizeParent=0;resizeLast=1;shadow=0;dashed=0;align=center;arcSize=4;whiteSpace=wrap;html=1;" vertex="1" parent="1">
          <mxGeometry x="-826" y="29" width="214" height="176" as="geometry" />
        </mxCell>
        <mxCell id="0JZNGs19J2AaL2Q8BezS-18" value="+ID:&amp;nbsp; UUID - PK&lt;br&gt;+Username: String&lt;br&gt;+Email: String&lt;div&gt;+Password: String&lt;/div&gt;&lt;div&gt;+Bio: String&lt;/div&gt;&lt;div&gt;+Avatar: String&lt;/div&gt;&lt;div&gt;+Created_At: Timestamp&lt;/div&gt;" style="align=left;strokeColor=none;fillColor=none;spacingLeft=4;spacingRight=4;fontSize=12;verticalAlign=top;resizable=0;rotatable=0;part=1;html=1;whiteSpace=wrap;" vertex="1" parent="0JZNGs19J2AaL2Q8BezS-17">
          <mxGeometry y="50" width="214" height="126" as="geometry" />
        </mxCell>
        <mxCell id="0JZNGs19J2AaL2Q8BezS-20" value="Post" style="swimlane;childLayout=stackLayout;horizontal=1;startSize=50;horizontalStack=0;rounded=1;fontSize=14;fontStyle=0;strokeWidth=2;resizeParent=0;resizeLast=1;shadow=0;dashed=0;align=center;arcSize=4;whiteSpace=wrap;html=1;" vertex="1" parent="1">
          <mxGeometry x="-335" y="47" width="183" height="140" as="geometry" />
        </mxCell>
        <mxCell id="0JZNGs19J2AaL2Q8BezS-21" value="+ID:&amp;nbsp; UUID - PK&lt;br&gt;+UserID: UUID - FK&lt;br&gt;+Cotent: String&lt;div&gt;+Image_URL: String&lt;/div&gt;&lt;div&gt;+Created_At: Timestamp&lt;/div&gt;" style="align=left;strokeColor=none;fillColor=none;spacingLeft=4;spacingRight=4;fontSize=12;verticalAlign=top;resizable=0;rotatable=0;part=1;html=1;whiteSpace=wrap;" vertex="1" parent="0JZNGs19J2AaL2Q8BezS-20">
          <mxGeometry y="50" width="183" height="90" as="geometry" />
        </mxCell>
        <mxCell id="0JZNGs19J2AaL2Q8BezS-23" style="edgeStyle=orthogonalEdgeStyle;rounded=0;orthogonalLoop=1;jettySize=auto;html=1;entryX=1;entryY=0.5;entryDx=0;entryDy=0;" edge="1" parent="1" source="0JZNGs19J2AaL2Q8BezS-21" target="0JZNGs19J2AaL2Q8BezS-18">
          <mxGeometry relative="1" as="geometry" />
        </mxCell>
        <mxCell id="0JZNGs19J2AaL2Q8BezS-24" value="User ID references ID in User Table" style="edgeLabel;html=1;align=center;verticalAlign=middle;resizable=0;points=[];" vertex="1" connectable="0" parent="0JZNGs19J2AaL2Q8BezS-23">
          <mxGeometry x="0.0236" relative="1" as="geometry">
            <mxPoint as="offset" />
          </mxGeometry>
        </mxCell>
        <mxCell id="0JZNGs19J2AaL2Q8BezS-30" style="edgeStyle=orthogonalEdgeStyle;rounded=0;orthogonalLoop=1;jettySize=auto;html=1;" edge="1" parent="1" source="0JZNGs19J2AaL2Q8BezS-26" target="0JZNGs19J2AaL2Q8BezS-21">
          <mxGeometry relative="1" as="geometry">
            <Array as="points">
              <mxPoint x="-274" y="309" />
            </Array>
          </mxGeometry>
        </mxCell>
        <mxCell id="0JZNGs19J2AaL2Q8BezS-31" value="Post ID references ID in Post Table" style="edgeLabel;html=1;align=center;verticalAlign=middle;resizable=0;points=[];" vertex="1" connectable="0" parent="0JZNGs19J2AaL2Q8BezS-30">
          <mxGeometry x="0.1796" y="-1" relative="1" as="geometry">
            <mxPoint as="offset" />
          </mxGeometry>
        </mxCell>
        <mxCell id="0JZNGs19J2AaL2Q8BezS-26" value="Reactions" style="swimlane;childLayout=stackLayout;horizontal=1;startSize=50;horizontalStack=0;rounded=1;fontSize=14;fontStyle=0;strokeWidth=2;resizeParent=0;resizeLast=1;shadow=0;dashed=0;align=center;arcSize=4;whiteSpace=wrap;html=1;" vertex="1" parent="1">
          <mxGeometry x="-574" y="240" width="189" height="138" as="geometry" />
        </mxCell>
        <mxCell id="0JZNGs19J2AaL2Q8BezS-27" value="+ID:&amp;nbsp; UUID - PK&lt;br&gt;+UserID: UUID - FK&lt;br&gt;+Post ID: UUID - FK&lt;div&gt;+Type: ENUM&lt;/div&gt;&lt;div&gt;+Created_At: Timestamp&lt;/div&gt;" style="align=left;strokeColor=none;fillColor=none;spacingLeft=4;spacingRight=4;fontSize=12;verticalAlign=top;resizable=0;rotatable=0;part=1;html=1;whiteSpace=wrap;" vertex="1" parent="0JZNGs19J2AaL2Q8BezS-26">
          <mxGeometry y="50" width="189" height="88" as="geometry" />
        </mxCell>
        <mxCell id="0JZNGs19J2AaL2Q8BezS-28" style="edgeStyle=orthogonalEdgeStyle;rounded=0;orthogonalLoop=1;jettySize=auto;html=1;entryX=0.5;entryY=1;entryDx=0;entryDy=0;" edge="1" parent="1" source="0JZNGs19J2AaL2Q8BezS-27" target="0JZNGs19J2AaL2Q8BezS-18">
          <mxGeometry relative="1" as="geometry" />
        </mxCell>
        <mxCell id="0JZNGs19J2AaL2Q8BezS-29" value="User ID references ID in User Table" style="edgeLabel;html=1;align=center;verticalAlign=middle;resizable=0;points=[];" vertex="1" connectable="0" parent="0JZNGs19J2AaL2Q8BezS-28">
          <mxGeometry x="0.3689" y="3" relative="1" as="geometry">
            <mxPoint as="offset" />
          </mxGeometry>
        </mxCell>
        <mxCell id="0JZNGs19J2AaL2Q8BezS-33" value="Comment" style="swimlane;childLayout=stackLayout;horizontal=1;startSize=50;horizontalStack=0;rounded=1;fontSize=14;fontStyle=0;strokeWidth=2;resizeParent=0;resizeLast=1;shadow=0;dashed=0;align=center;arcSize=4;whiteSpace=wrap;html=1;" vertex="1" parent="1">
          <mxGeometry x="-584" y="458" width="214" height="176" as="geometry" />
        </mxCell>
        <mxCell id="0JZNGs19J2AaL2Q8BezS-34" value="+ID:&amp;nbsp; UUID - PK&lt;br&gt;+UserID: UUID - FK&lt;br&gt;+PostID: UUID - FK&lt;div&gt;+ParentID: UUID - FK&lt;/div&gt;&lt;div&gt;+Content: String&lt;/div&gt;&lt;div&gt;&lt;span style=&quot;background-color: transparent; color: light-dark(rgb(0, 0, 0), rgb(255, 255, 255));&quot;&gt;+Created_At: Timestamp&lt;/span&gt;&lt;/div&gt;" style="align=left;strokeColor=none;fillColor=none;spacingLeft=4;spacingRight=4;fontSize=12;verticalAlign=top;resizable=0;rotatable=0;part=1;html=1;whiteSpace=wrap;" vertex="1" parent="0JZNGs19J2AaL2Q8BezS-33">
          <mxGeometry y="50" width="214" height="126" as="geometry" />
        </mxCell>
        <mxCell id="0JZNGs19J2AaL2Q8BezS-36" style="edgeStyle=orthogonalEdgeStyle;rounded=0;orthogonalLoop=1;jettySize=auto;html=1;entryX=0.063;entryY=0.983;entryDx=0;entryDy=0;entryPerimeter=0;" edge="1" parent="1" source="0JZNGs19J2AaL2Q8BezS-34" target="0JZNGs19J2AaL2Q8BezS-18">
          <mxGeometry relative="1" as="geometry" />
        </mxCell>
        <mxCell id="0JZNGs19J2AaL2Q8BezS-37" value="User ID references ID in User Table" style="edgeLabel;html=1;align=center;verticalAlign=middle;resizable=0;points=[];" vertex="1" connectable="0" parent="0JZNGs19J2AaL2Q8BezS-36">
          <mxGeometry x="-0.0104" y="3" relative="1" as="geometry">
            <mxPoint as="offset" />
          </mxGeometry>
        </mxCell>
        <mxCell id="0JZNGs19J2AaL2Q8BezS-38" style="edgeStyle=orthogonalEdgeStyle;rounded=0;orthogonalLoop=1;jettySize=auto;html=1;entryX=0.88;entryY=1.014;entryDx=0;entryDy=0;entryPerimeter=0;" edge="1" parent="1" source="0JZNGs19J2AaL2Q8BezS-34" target="0JZNGs19J2AaL2Q8BezS-21">
          <mxGeometry relative="1" as="geometry" />
        </mxCell>
        <mxCell id="0JZNGs19J2AaL2Q8BezS-39" value="FPost ID references ID in Post Table" style="edgeLabel;html=1;align=center;verticalAlign=middle;resizable=0;points=[];" vertex="1" connectable="0" parent="0JZNGs19J2AaL2Q8BezS-38">
          <mxGeometry x="-0.0618" y="1" relative="1" as="geometry">
            <mxPoint as="offset" />
          </mxGeometry>
        </mxCell>
        <mxCell id="0JZNGs19J2AaL2Q8BezS-42" style="edgeStyle=orthogonalEdgeStyle;rounded=0;orthogonalLoop=1;jettySize=auto;html=1;entryX=0;entryY=0.25;entryDx=0;entryDy=0;" edge="1" parent="1" source="0JZNGs19J2AaL2Q8BezS-40" target="0JZNGs19J2AaL2Q8BezS-18">
          <mxGeometry relative="1" as="geometry">
            <Array as="points">
              <mxPoint x="-988" y="836" />
              <mxPoint x="-988" y="111" />
            </Array>
          </mxGeometry>
        </mxCell>
        <mxCell id="0JZNGs19J2AaL2Q8BezS-43" value="&lt;span style=&quot;color: rgba(0, 0, 0, 0); font-family: monospace; font-size: 0px; text-align: start; background-color: rgb(251, 251, 251);&quot;&gt;%3CmxGraphModel%3E%3Croot%3E%3CmxCell%20id%3D%220%22%2F%3E%3CmxCell%20id%3D%221%22%20parent%3D%220%22%2F%3E%3CmxCell%20id%3D%222%22%20style%3D%22edgeStyle%3DorthogonalEdgeStyle%3Brounded%3D0%3BorthogonalLoop%3D1%3BjettySize%3Dauto%3Bhtml%3D1%3BentryX%3D0.063%3BentryY%3D0.983%3BentryDx%3D0%3BentryDy%3D0%3BentryPerimeter%3D0%3B%22%20edge%3D%221%22%20parent%3D%221%22%3E%3CmxGeometry%20relative%3D%221%22%20as%3D%22geometry%22%3E%3CmxPoint%20x%3D%22-584%22%20y%3D%22571%22%20as%3D%22sourcePoint%22%2F%3E%3CmxPoint%20x%3D%22-813%22%20y%3D%22203%22%20as%3D%22targetPoint%22%2F%3E%3C%2FmxGeometry%3E%3C%2FmxCell%3E%3CmxCell%20id%3D%223%22%20value%3D%22User%20ID%20references%20ID%20in%20User%20Table%22%20style%3D%22edgeLabel%3Bhtml%3D1%3Balign%3Dcenter%3BverticalAlign%3Dmiddle%3Bresizable%3D0%3Bpoints%3D%5B%5D%3B%22%20vertex%3D%221%22%20connectable%3D%220%22%20parent%3D%222%22%3E%3CmxGeometry%20x%3D%22-0.0104%22%20y%3D%223%22%20relative%3D%221%22%20as%3D%22geometry%22%3E%3CmxPoint%20as%3D%22offset%22%2F%3E%3C%2FmxGeometry%3E%3C%2FmxCell%3E%3C%2Froot%3E%3C%2FmxGraphModel%3E&lt;/span&gt;" style="edgeLabel;html=1;align=center;verticalAlign=middle;resizable=0;points=[];" vertex="1" connectable="0" parent="0JZNGs19J2AaL2Q8BezS-42">
          <mxGeometry x="-0.199" y="-4" relative="1" as="geometry">
            <mxPoint y="1" as="offset" />
          </mxGeometry>
        </mxCell>
        <mxCell id="0JZNGs19J2AaL2Q8BezS-44" value="Follower ID &amp;amp; Following ID references ID in User Table" style="edgeLabel;html=1;align=center;verticalAlign=middle;resizable=0;points=[];" vertex="1" connectable="0" parent="0JZNGs19J2AaL2Q8BezS-42">
          <mxGeometry x="-0.2295" y="3" relative="1" as="geometry">
            <mxPoint as="offset" />
          </mxGeometry>
        </mxCell>
        <mxCell id="0JZNGs19J2AaL2Q8BezS-40" value="Follow" style="swimlane;childLayout=stackLayout;horizontal=1;startSize=50;horizontalStack=0;rounded=1;fontSize=14;fontStyle=0;strokeWidth=2;resizeParent=0;resizeLast=1;shadow=0;dashed=0;align=center;arcSize=4;whiteSpace=wrap;html=1;" vertex="1" parent="1">
          <mxGeometry x="-586" y="748" width="213.5" height="176" as="geometry" />
        </mxCell>
        <mxCell id="0JZNGs19J2AaL2Q8BezS-41" value="+ID:&amp;nbsp; UUID - PK&lt;br&gt;+FollowerID: UUID - FK&lt;br&gt;+FollowingID: UUID - FK&lt;div&gt;&lt;span style=&quot;background-color: transparent; color: light-dark(rgb(0, 0, 0), rgb(255, 255, 255));&quot;&gt;+Created_At: Timestamp&lt;/span&gt;&lt;/div&gt;" style="align=left;strokeColor=none;fillColor=none;spacingLeft=4;spacingRight=4;fontSize=12;verticalAlign=top;resizable=0;rotatable=0;part=1;html=1;whiteSpace=wrap;" vertex="1" parent="0JZNGs19J2AaL2Q8BezS-40">
          <mxGeometry y="50" width="213.5" height="126" as="geometry" />
        </mxCell>
      </root>
    </mxGraphModel>
  </diagram>
</mxfile>
